<svg width="24" height="24" viewBox="0 0 24 24" fill="none" xmlns="http://www.w3.org/2000/svg">
<path d="M12 0C8.8174 0 5.76515 1.26428 3.51472 3.51472C1.26428 5.76515 0 8.8174 0 12C0 15.1826 1.26428 18.2348 3.51472 20.4853C5.76515 22.7357 8.8174 24 12 24C15.1826 24 18.2348 22.7357 20.4853 20.4853C22.7357 18.2348 24 15.1826 24 12C24 8.8174 22.7357 5.76515 20.4853 3.51472C18.2348 1.26428 15.1826 0 12 0ZM15.163 21.783H15.07C15.0001 21.7877 14.9299 21.7777 14.8641 21.7536C14.7983 21.7295 14.7383 21.6918 14.688 21.643C14.6405 21.5939 14.6035 21.5355 14.5794 21.4715C14.5554 21.4075 14.5447 21.3393 14.548 21.271V19.865C14.5547 19.3977 14.558 18.9257 14.558 18.449C14.5563 18.1009 14.5054 17.7549 14.407 17.421C14.3138 17.0835 14.1257 16.7798 13.865 16.546C14.562 16.4789 15.2472 16.3205 15.903 16.075C16.4562 15.8646 16.9566 15.5356 17.369 15.111C17.776 14.684 18.079 14.168 18.254 13.605C18.4664 12.9154 18.5676 12.1964 18.554 11.475C18.5588 10.9712 18.4706 10.4708 18.294 9.999C18.1152 9.52329 17.8451 9.08711 17.499 8.715C17.5738 8.52741 17.6281 8.33228 17.661 8.133C17.6943 7.933 17.711 7.73167 17.711 7.529C17.711 7.26767 17.681 7.01 17.621 6.756C17.5677 6.49621 17.4938 6.24107 17.4 5.993C17.3646 5.97938 17.3269 5.97259 17.289 5.973H17.179C16.9483 5.97567 16.7237 6.01267 16.505 6.084C16.2645 6.15296 16.0295 6.23987 15.802 6.344C15.5757 6.44652 15.3551 6.56102 15.141 6.687C14.9263 6.81433 14.7353 6.935 14.568 7.049C12.8856 6.58124 11.1074 6.58124 9.425 7.049C9.23728 6.92374 9.04656 6.80304 8.853 6.687C8.63639 6.55902 8.41195 6.4448 8.181 6.345C7.95369 6.23849 7.71787 6.15118 7.476 6.084C7.26231 6.01336 7.03905 5.97592 6.814 5.973H6.704C6.6664 5.97271 6.62909 5.9795 6.594 5.993C6.50051 6.24196 6.42367 6.49685 6.364 6.756C6.31067 7.01067 6.28367 7.26833 6.283 7.529C6.283 7.73167 6.3 7.933 6.334 8.133C6.368 8.333 6.42133 8.527 6.494 8.715C6.14884 9.08767 5.8798 9.52418 5.702 10C5.52436 10.4717 5.4352 10.972 5.439 11.476C5.42549 12.1936 5.52401 12.9088 5.731 13.596C5.912 14.159 6.214 14.676 6.615 15.112C7.03 15.534 7.53 15.862 8.081 16.076C8.734 16.326 9.418 16.486 10.114 16.552C9.919 16.7275 9.76473 16.9436 9.662 17.185C9.56363 17.4234 9.49641 17.6734 9.462 17.929C9.09513 18.1048 8.69382 18.197 8.287 18.199C7.90931 18.2133 7.5367 18.1083 7.222 17.899C6.92037 17.6756 6.66498 17.3957 6.47 17.075C6.38304 16.9401 6.2854 16.8123 6.178 16.693C6.06501 16.5673 5.94046 16.4524 5.806 16.35C5.67372 16.2505 5.52835 16.1698 5.374 16.11C5.22235 16.0435 5.05858 16.0091 4.893 16.009C4.853 16.0103 4.813 16.0137 4.773 16.019C4.7184 16.0193 4.66404 16.026 4.611 16.039C4.56441 16.051 4.52037 16.0713 4.481 16.099C4.46332 16.1092 4.44853 16.1237 4.43804 16.1412C4.42754 16.1587 4.42167 16.1786 4.421 16.199C4.4252 16.2471 4.43992 16.2937 4.46411 16.3356C4.4883 16.3774 4.52137 16.4134 4.561 16.441C4.65433 16.515 4.73167 16.572 4.793 16.612L4.823 16.633C4.95633 16.7363 5.08367 16.8473 5.205 16.966C5.31767 17.0647 5.41767 17.1747 5.505 17.296C5.59567 17.4147 5.67267 17.5417 5.736 17.677C5.80933 17.8103 5.88633 17.9647 5.967 18.14C6.155 18.614 6.489 19.015 6.921 19.285C7.374 19.528 7.882 19.649 8.397 19.636C8.57167 19.636 8.74567 19.626 8.919 19.606C9.091 19.5787 9.26267 19.5483 9.434 19.515V21.258C9.43711 21.3283 9.42536 21.3984 9.39951 21.4638C9.37366 21.5293 9.3343 21.5885 9.28399 21.6377C9.23369 21.6869 9.17357 21.7249 9.10758 21.7492C9.04158 21.7736 8.97119 21.7837 8.901 21.779H8.839C6.50704 21.0257 4.52066 19.4645 3.23757 17.3766C1.95447 15.2887 1.45897 12.8114 1.84028 10.3906C2.2216 7.9698 3.45467 5.7647 5.31747 4.17236C7.18027 2.58002 9.55038 1.70507 12.001 1.70507C14.4516 1.70507 16.8217 2.58002 18.6845 4.17236C20.5473 5.7647 21.7804 7.9698 22.1617 10.3906C22.543 12.8114 22.0475 15.2887 20.7644 17.3766C19.4813 19.4645 17.495 21.0257 15.163 21.779V21.783Z" fill="black"/>
</svg>
