<svg width="24" height="24" viewBox="0 0 24 24" fill="none" xmlns="http://www.w3.org/2000/svg">
<path d="M12 22.2454C17.595 22.2454 22.2454 17.6049 22.2454 12C22.2454 6.40501 17.5847 1.75458 11.9897 1.75458C6.38528 1.75458 1.755 6.40501 1.755 12C1.755 17.6049 6.39514 22.2454 12 22.2454ZM12.0004 20.538C7.25871 20.538 3.47143 16.7409 3.47143 12C3.47143 7.26858 7.24843 3.46201 11.9897 3.46201C16.7207 3.46201 20.5273 7.26901 20.5376 12C20.5474 16.7413 16.7306 20.538 11.9996 20.538M9.58885 14.3709C11.9289 16.7212 14.9126 18.2074 16.6804 16.4494C16.743 16.3876 16.8001 16.3205 16.851 16.2489C17.313 15.7367 17.4437 15.0536 16.851 14.6117C16.389 14.28 15.897 13.9389 15.063 13.356C14.4806 12.9446 14.0987 13.0444 13.647 13.4966L13.245 13.8883C13.1246 13.9989 12.9339 13.989 12.8031 13.9084C12.4517 13.6976 11.859 13.2253 11.2963 12.663C10.7439 12.1101 10.242 11.4879 10.0509 11.1561C9.98057 11.0456 9.93043 10.8647 10.071 10.7344L10.4627 10.3123C10.9149 9.84044 11.0151 9.47872 10.5934 8.88601L9.35785 7.13829C8.93571 6.54558 8.32328 6.65615 7.65 7.15843C7.59985 7.19872 7.56 7.23901 7.51971 7.27886C5.75185 9.04672 7.24843 12.03 9.58885 14.3704" fill="black"/>
</svg>
