<svg width="35" height="35" viewBox="0 0 35 35" fill="none" xmlns="http://www.w3.org/2000/svg">
<path d="M2.1875 3.0479C3.5 4.37499 5.64375 5.43957 8.29792 6.1979C10.892 4.07019 14.145 2.91026 17.5 2.91665C20.9854 2.91665 24.1938 4.14165 26.7021 6.1979C29.3563 5.43957 31.5 4.37499 32.8125 3.0479C32.7688 5.42499 31.5729 7.5979 29.575 9.33332C31.2158 11.7402 32.0902 14.5871 32.0833 17.5C32.0833 21.3677 30.5469 25.0771 27.812 27.812C25.0771 30.5469 21.3677 32.0833 17.5 32.0833C15.5849 32.0833 13.6885 31.7061 11.9192 30.9732C10.1499 30.2403 8.54221 29.1661 7.18803 27.812C4.45312 25.0771 2.91667 21.3677 2.91667 17.5C2.91667 14.4667 3.83542 11.6667 5.425 9.33332C3.42708 7.5979 2.23125 5.42499 2.1875 3.0479ZM29.1667 17.5C29.1667 14.4058 27.9375 11.4383 25.7496 9.25041C23.5617 7.06248 20.5942 5.83332 17.5 5.83332C14.4058 5.83332 11.4383 7.06248 9.25042 9.25041C7.0625 11.4383 5.83333 14.4058 5.83333 17.5C5.83333 20.5942 7.0625 23.5616 9.25042 25.7496C11.4383 27.9375 14.4058 29.1666 17.5 29.1666C20.5942 29.1666 23.5617 27.9375 25.7496 25.7496C27.9375 23.5616 29.1667 20.5942 29.1667 17.5ZM15.3125 14.5833C15.3125 15.75 14.2917 16.7708 13.125 16.7708C11.9583 16.7708 10.9375 15.75 10.9375 14.5833V12.3958L15.3125 14.5833ZM24.0625 14.5833C24.0625 15.75 23.0417 16.7708 21.875 16.7708C20.7083 16.7708 19.6875 15.75 19.6875 14.5833L24.0625 12.3958V14.5833ZM17.5 25.1271C14.9479 25.1271 12.7021 24.0625 11.3896 22.4875L13.4604 20.4167C14.1167 21.4667 15.6771 22.2104 17.5 22.2104C19.3229 22.2104 20.8833 21.4667 21.5396 20.4167L23.6104 22.4875C22.2979 24.0625 20.0521 25.1271 17.5 25.1271Z" fill="#FF8473"/>
</svg>
