<svg width="29" height="29" viewBox="0 0 29 29" fill="none" xmlns="http://www.w3.org/2000/svg">
<path d="M19.2838 18.4868C16.8546 21.3567 12.5701 21.713 9.70021 19.2838C6.83028 16.8546 6.47397 12.5701 8.90319 9.70021C11.3324 6.83028 15.6168 6.47397 18.4868 8.90319C21.3567 11.3324 21.713 15.6168 19.2838 18.4868ZM9.51382 10.2171C7.36886 12.7512 7.68298 16.5282 10.2171 18.6732C12.7512 20.8181 16.5282 20.504 18.6732 17.9699C20.8181 15.4358 20.504 11.6588 17.9699 9.51381C15.4358 7.36886 11.6588 7.68298 9.51382 10.2171Z" fill="#BEBEBE"/>
<path d="M16.9775 16.6919L16.1882 16.7575L15.7991 12.0785L11.1201 12.4676L11.0544 11.6784L16.5227 11.2236L16.9775 16.6919Z" fill="#BEBEBE"/>
<path d="M11.4623 16.5829L15.8556 11.3926L16.4662 11.9094L12.0729 17.0997L11.4623 16.5829Z" fill="#BEBEBE"/>
</svg>
