<svg width="35" height="35" viewBox="0 0 35 35" fill="none" xmlns="http://www.w3.org/2000/svg">
<path d="M10.2521 7.21873L5.08958 12.3812C0.247912 17.2229 0.247912 25.0687 5.08958 29.9104C9.93124 34.7521 17.7771 34.7521 22.6187 29.9104L31.3833 21.1458C31.7631 20.7613 32.0534 20.2976 32.2332 19.7879C32.4131 19.2782 32.4782 18.7351 32.4239 18.1974C32.3695 17.6596 32.1971 17.1405 31.9189 16.6771C31.6407 16.2137 31.2636 15.8174 30.8146 15.5166L31.3833 14.9479C32.7979 13.5333 32.7979 11.2146 31.3833 9.7854C31.15 9.55206 30.8729 9.3479 30.5958 9.18748C30.9164 8.45963 30.9898 7.64687 30.8049 6.87335C30.62 6.09984 30.187 5.40812 29.572 4.90388C28.957 4.39964 28.1938 4.1106 27.3991 4.08093C26.6043 4.05126 25.8217 4.28258 25.1708 4.73956C24.8741 4.28249 24.4793 3.89723 24.0151 3.61174C23.5509 3.32625 23.029 3.1477 22.4872 3.08906C21.9454 3.03041 21.3973 3.09313 20.8828 3.27268C20.3683 3.45222 19.9002 3.74408 19.5125 4.12706L15.8521 7.78748C15.555 7.33818 15.1617 6.96051 14.7008 6.68179C14.2399 6.40306 13.7228 6.23023 13.1869 6.17581C12.651 6.12138 12.1097 6.18671 11.6021 6.36708C11.0946 6.54744 10.6335 6.83834 10.2521 7.21873ZM12.3083 9.28956C12.6 8.9979 13.0521 8.9979 13.3437 9.28956C13.6354 9.58123 13.6354 10.0333 13.3437 10.325L8.70624 14.9625C9.52554 15.7828 9.98573 16.8948 9.98573 18.0541C9.98573 19.2135 9.52554 20.3255 8.70624 21.1458L10.7625 23.2021C11.7648 22.1988 12.4531 20.9252 12.7432 19.537C13.0333 18.1488 12.9126 16.7061 12.3958 15.3854L21.5833 6.1979C21.875 5.90623 22.3271 5.90623 22.6187 6.1979C22.9104 6.48956 22.9104 6.94165 22.6187 7.23331L15.9104 13.9416L17.9667 15.9979L26.7312 7.23331C27.0229 6.94165 27.475 6.94165 27.7667 7.23331C28.0583 7.52498 28.0583 7.97706 27.7667 8.26873L19.0021 17.0333L21.0583 19.0896L28.2771 11.8708C28.5687 11.5791 29.0208 11.5791 29.3125 11.8708C29.6042 12.1625 29.6042 12.6146 29.3125 12.9062L21.0583 21.1604L23.1146 23.2166L28.2771 18.0541C28.5687 17.7625 29.0208 17.7625 29.3125 18.0541C29.6042 18.3458 29.6042 18.7979 29.3125 19.0896L20.5625 27.8541C16.8583 31.5583 10.8646 31.5583 7.16041 27.8541C3.45624 24.15 3.45624 18.1562 7.16041 14.4521L12.3083 9.28956ZM33.5417 24.7916C33.5417 29.6187 29.6187 33.5416 24.7917 33.5416V31.3541C28.4083 31.3541 31.3542 28.4083 31.3542 24.7916H33.5417ZM1.45833 10.2083C1.45833 5.38123 5.38124 1.45831 10.2083 1.45831V3.64581C6.59166 3.64581 3.64583 6.59165 3.64583 10.2083H1.45833Z" fill="#FF8473"/>
</svg>
