<svg width="50" height="50" viewBox="0 0 50 50" fill="none" xmlns="http://www.w3.org/2000/svg">
<path d="M39.7292 28.9167L27.0834 41.5417V45.8334H31.375L44 33.1875M47.2917 28.2917L44.625 25.625C44.5246 25.5147 44.4024 25.4262 44.2662 25.3653C44.1299 25.3043 43.9826 25.2722 43.8334 25.2709C43.5209 25.2917 43.2292 25.3959 43.0209 25.625L40.9375 27.7084L45.2084 31.875L47.2917 29.7917C47.6875 29.375 47.6875 28.7084 47.2917 28.2917ZM22.9167 37.5H8.33335V16.6667L25 27.0834L41.6667 16.6667V20.8334H45.8334V12.5C45.8334 10.2084 43.9584 8.33337 41.6667 8.33337H8.33335C6.04169 8.33337 4.16669 10.2084 4.16669 12.5V37.5C4.16669 39.7917 6.04169 41.6667 8.33335 41.6667H22.9167V37.5ZM41.6667 12.5L25 22.9167L8.33335 12.5H41.6667Z" fill="#FF8473"/>
</svg>
