<svg width="22" height="20" viewBox="0 0 22 20" fill="none" xmlns="http://www.w3.org/2000/svg">
<path d="M6.002 5.75L8.944 7.49C10.659 8.504 11.345 8.504 13.06 7.49L16.002 5.75" stroke="black" stroke-width="1.5" stroke-linecap="round" stroke-linejoin="round"/>
<path d="M20.998 8.75001V7.77801C20.932 4.71101 20.899 3.17801 19.768 2.04101C18.636 0.905013 17.061 0.866013 13.911 0.787013C11.976 0.738151 10.04 0.738151 8.105 0.787013C4.955 0.866013 3.38 0.905013 2.248 2.04101C1.116 3.17701 1.083 4.71101 1.018 7.77801C0.996931 8.76223 0.996931 9.74679 1.018 10.731C1.084 13.799 1.116 15.332 2.248 16.468C3.38 17.604 4.955 17.644 8.105 17.723C8.573 17.735 9.535 17.743 10.002 17.75M19.855 11.69L20.547 12.382C20.8282 12.6633 20.9862 13.0448 20.9862 13.4425C20.9862 13.8403 20.8282 14.2217 20.547 14.503L16.919 18.199C16.6336 18.4841 16.2686 18.6761 15.872 18.75L13.624 19.238C13.5423 19.2557 13.4576 19.2527 13.3774 19.2292C13.2972 19.2057 13.2242 19.1625 13.165 19.1035C13.1058 19.0446 13.0624 18.9717 13.0386 18.8916C13.0149 18.8115 13.0116 18.7267 13.029 18.645L13.508 16.41C13.5821 16.0133 13.7746 15.6483 14.06 15.363L17.733 11.689C17.8723 11.5496 18.0377 11.439 18.2197 11.3636C18.4018 11.2882 18.5969 11.2493 18.794 11.2493C18.9911 11.2493 19.1862 11.2882 19.3682 11.3636C19.5503 11.439 19.7157 11.5506 19.855 11.69Z" stroke="black" stroke-width="1.5" stroke-linecap="round" stroke-linejoin="round"/>
</svg>
